<svg width="40" height="40" viewBox="0 0 40 40" fill="none" xmlns="http://www.w3.org/2000/svg">
<g clip-path="url(#clip0_585_53706)">
<path d="M20.0007 3.33337C10.8007 3.33337 3.33398 10.8 3.33398 20C3.33398 29.2 10.8007 36.6667 20.0007 36.6667C29.2007 36.6667 36.6673 29.2 36.6673 20C36.6673 10.8 29.2007 3.33337 20.0007 3.33337ZM11.784 30.4667C12.5007 28.9667 16.8673 27.5 20.0007 27.5C23.134 27.5 27.5173 28.9667 28.2173 30.4667C25.9507 32.2667 23.1007 33.3334 20.0007 33.3334C16.9007 33.3334 14.0507 32.2667 11.784 30.4667ZM30.6007 28.05C28.2173 25.15 22.434 24.1667 20.0007 24.1667C17.5673 24.1667 11.784 25.15 9.40065 28.05C7.70065 25.8167 6.66732 23.0334 6.66732 20C6.66732 12.65 12.6507 6.66671 20.0007 6.66671C27.3507 6.66671 33.334 12.65 33.334 20C33.334 23.0334 32.3007 25.8167 30.6007 28.05ZM20.0007 10C16.7673 10 14.1673 12.6 14.1673 15.8334C14.1673 19.0667 16.7673 21.6667 20.0007 21.6667C23.234 21.6667 25.834 19.0667 25.834 15.8334C25.834 12.6 23.234 10 20.0007 10ZM20.0007 18.3334C18.6173 18.3334 17.5007 17.2167 17.5007 15.8334C17.5007 14.45 18.6173 13.3334 20.0007 13.3334C21.384 13.3334 22.5007 14.45 22.5007 15.8334C22.5007 17.2167 21.384 18.3334 20.0007 18.3334Z" fill="white"/>
</g>
<defs>
<clipPath id="clip0_585_53706">
<rect width="40" height="40" fill="white"/>
</clipPath>
</defs>
</svg>
